<?xml version="1.0" encoding="UTF-8" standalone="no"?>
<!-- Created with Inkscape (http://www.inkscape.org/) -->

<svg
   xmlns:dc="http://purl.org/dc/elements/1.1/"
   xmlns:cc="http://creativecommons.org/ns#"
   xmlns:rdf="http://www.w3.org/1999/02/22-rdf-syntax-ns#"
   xmlns:svg="http://www.w3.org/2000/svg"
   xmlns="http://www.w3.org/2000/svg"
   xmlns:sodipodi="http://sodipodi.sourceforge.net/DTD/sodipodi-0.dtd"
   xmlns:inkscape="http://www.inkscape.org/namespaces/inkscape"
   version="1.1"
   id="svg2"
   width="146.93976"
   height="149.02782"
   viewBox="0 0 146.93977 149.02782"
   sodipodi:docname="img-3.svg"
   inkscape:version="0.92.0 r15299">
  <metadata
     id="metadata8">
    <rdf:RDF>
      <cc:Work
         rdf:about="">
        <dc:format>image/svg+xml</dc:format>
        <dc:type
           rdf:resource="http://purl.org/dc/dcmitype/StillImage" />
        <dc:title></dc:title>
      </cc:Work>
    </rdf:RDF>
  </metadata>
  <defs
     id="defs6" />
  <sodipodi:namedview
     pagecolor="#ffffff"
     bordercolor="#666666"
     borderopacity="1"
     objecttolerance="10"
     gridtolerance="10"
     guidetolerance="10"
     inkscape:pageopacity="0"
     inkscape:pageshadow="2"
     inkscape:window-width="1108"
     inkscape:window-height="480"
     id="namedview4"
     showgrid="false"
     fit-margin-top="0"
     fit-margin-left="0"
     fit-margin-right="0"
     fit-margin-bottom="0"
     inkscape:zoom="1.5733333"
     inkscape:cx="59.828499"
     inkscape:cy="77.353024"
     inkscape:window-x="57"
     inkscape:window-y="431"
     inkscape:window-maximized="0"
     inkscape:current-layer="svg2" />
  <path
     style="fill:#717171"
     d="M 60.78371,148.40276 C 34.22421,143.62827 11.92631,124.22599 2.78225,97.933381 0.20301,90.517096 0,88.80244 0,74.433383 0,60.064326 0.20301,58.34967 2.78225,50.933383 10.74086,28.049403 27.70962,11.03057 50.22187,3.3537728 59.15655,0.30700015 60.96727,0.03385373 72.44896,8.1552975e-4 86.60323,-0.03991247 93.632885,1.434214 104.94896,6.8161051 c 19.50043,9.2743419 34.27507,27.1657709 40.14788,48.6172779 2.45722,8.975443 2.45722,29.024557 0,38 -7.15228,26.124987 -27.60837,46.730307 -53.147877,53.535577 -7.263543,1.93545 -24.072783,2.70878 -31.165253,1.4338 z m 32.665253,-9.91137 c 19.792247,-6.67842 34.787227,-21.53642 42.630277,-42.240836 2.56524,-6.77181 2.77182,-8.397879 2.77182,-21.817171 0,-13.419292 -0.20658,-15.045361 -2.77182,-21.817171 C 128.23283,31.90292 113.1864,17.000051 93.448963,10.392676 84.19302,7.2941241 69.13088,6.6359514 59.00941,8.8877648 35.47899,14.122785 15.12373,33.846375 8.9090599,57.433383 c -2.0947699,7.950449 -2.3889299,24.358197 -0.5737,32 0.71856,3.025 3.3380601,9.744628 5.8211201,14.932507 8.14728,17.02221 23.9667,30.09002 42.50801,35.11421 9.88879,2.67959 27.29999,2.21161 36.784473,-0.98871 z M 55.44896,136.09281 c -11.0794,-3.2993 -17.55917,-7.23263 -26.62109,-16.15943 -6.57657,-6.47851 -8.89379,-9.61659 -12.18389,-16.5 -4.31621,-9.030186 -7.1950201,-20.633407 -7.1950201,-28.999997 0,-8.36659 2.8788101,-19.969811 7.1950201,-29 3.28876,-6.880596 5.61001,-10.02497 12.18389,-16.50433 4.68382,-4.616477 10.66362,-9.348096 14.12821,-11.179186 17.68439,-9.3464789 40.23239,-9.8274019 57.85691,-1.234021 13.50937,6.58691 23.17959,16.492016 29.69622,30.417537 4.43897,9.485709 6.19431,17.278671 6.19431,27.5 0,10.221329 -1.75534,18.014291 -6.19431,27.499997 -6.51663,13.92552 -16.18685,23.83063 -29.69622,30.41754 -13.32886,6.4989 -31.16515,7.97014 -45.36403,3.74189 z m 37.000003,-2.59969 c 19.490347,-6.70359 35.265177,-23.76278 40.413647,-43.704082 2.04395,-7.91676 2.04395,-22.79455 0,-30.71131 C 127.71278,39.13116 111.91037,22.046255 92.448963,15.384181 83.52843,12.330482 68.26336,11.608609 59.44263,13.823336 37.76264,19.26679 20.28388,36.179134 13.85529,57.933383 c -2.41187,8.161728 -2.41187,24.838272 0,33 6.28798,21.278437 23.44286,38.198697 44.59367,43.983797 8.11164,2.21867 25.5301,1.48911 34.000003,-1.42406 z M 36.2793,117.4616 c -2.01832,-1.67276 -5.30047,-5.26298 -7.29366,-7.97826 -3.44112,-4.68774 -3.62488,-5.33766 -3.64145,-12.879265 -0.0215,-9.769144 1.68847,-14.245216 6.63878,-17.378196 2.7113,-1.715949 4.65376,-4.317423 7.32764,-9.813697 3.53564,-7.267659 3.77951,-7.518331 8.63835,-8.879081 7.04874,-1.974043 44.205605,-1.954386 50.500004,0.02672 4.185766,1.317431 4.787946,1.966896 8.623586,9.300771 2.76438,5.285578 5.07171,8.379977 7,9.387804 1.58203,0.82685 3.41914,2.21923 4.08248,3.094177 2.1317,2.81172 3.50672,11.949412 2.76272,18.359687 -0.67687,5.83196 -1.00127,6.39998 -7.37648,12.91569 -4.73753,4.84193 -7.39583,6.81543 -9.18039,6.81543 -2.84793,0 -4.911916,-1.65979 -4.911916,-3.95 0,-1.36094 -3.22709,-1.55 -26.457704,-1.55 h -26.4577 l -0.2923,2.5 c -0.45407,3.8836 -5.29361,3.89732 -9.96196,0.0282 z m 45.41966,-7.77221 c -4.5375,-0.18529 -11.9625,-0.18529 -16.5,0 -4.5375,0.1853 -0.825,0.3369 8.25,0.3369 9.075,0 12.7875,-0.1516 8.25,-0.3369 z m 2,-3.00189 c -5.6375,-0.17825 -14.8625,-0.17825 -20.5,0 -5.6375,0.17825 -1.025,0.32409 10.25,0.32409 11.275,0 15.887503,-0.14584 10.25,-0.32409 z m -1.5,-3.99869 c -4.8125,-0.18331 -12.6875,-0.18331 -17.5,0 -4.8125,0.18332 -0.875,0.3333 8.75,0.3333 9.625,0 13.5625,-0.14998 8.75,-0.3333 z m -38.304,-6.873076 c 0.88526,-0.339707 2.03631,-1.415025 2.55788,-2.389595 0.83324,-1.556926 -0.0677,-2.088712 -7.42416,-4.382351 -10.04296,-3.131232 -10.57972,-3.16337 -10.57972,-0.633458 0,2.346048 3.33318,4.714452 9.22359,6.553858 2.35203,0.734472 4.35211,1.365507 4.44463,1.402299 0.0925,0.03679 0.89251,-0.211046 1.77778,-0.550753 z m 68.804,-2.586324 c 3.76154,-1.617316 4.75,-2.536931 4.75,-4.419171 0,-1.307271 -0.42677,-2.376856 -0.94838,-2.376856 -2.28211,0 -17.051616,5.172801 -17.051616,5.972078 0,0.486786 0.739686,1.624755 1.643756,2.528821 1.85404,1.854049 4.09429,1.524972 11.60624,-1.704872 z m -9.03354,-17.612489 c 0.46475,-0.464744 -0.1239,-3.376846 -1.30809,-6.471339 -2.09419,-5.472451 -2.27966,-5.647572 -6.780723,-6.402182 -5.98524,-1.003434 -40.469467,-0.977336 -45.459507,0.0344 -3.44629,0.698744 -4.07944,1.336735 -6.29236,6.340552 -1.35328,3.059998 -2.18087,5.845197 -1.83909,6.18933 1.9557,1.9692 59.73015,2.258855 61.67977,0.309234 z M 28.19896,75.204469 c -4.7444,-2.018429 -5.4744,-3.079691 -3.86512,-5.619061 0.69712,-1.100016 1.88997,-1.132962 6.48469,-0.179102 6.01229,1.248146 6.81375,2.448597 3.88043,5.812241 l -1.75,2.006732 z m 82.77682,-0.719214 c -0.83975,-1.623904 -1.52682,-3.167995 -1.52682,-3.431314 0,-0.263319 2.55766,-1.009731 5.68369,-1.658692 5.12813,-1.064595 5.81235,-1.003969 7,0.620232 1.74347,2.384334 1.66123,3.08453 -0.43369,3.692559 -0.9625,0.279355 -3.42543,1.232835 -5.47318,2.118843 l -3.72317,1.610924 z M 17.44896,65.538718 c 0,-2.768435 4.59209,-15.33546 7.20324,-19.712884 l 3.04667,-5.10755 11.46386,-0.564594 c 6.30512,-0.310527 11.71619,-0.816934 12.02461,-1.125349 0.9446,-0.944597 -1.16006,-6.836406 -2.74591,-7.686933 -0.82086,-0.440245 -3.19247,-1.072387 -5.27026,-1.404761 -2.1203,-0.339177 -3.5093,-1.03874 -3.16584,-1.594468 0.33657,-0.544583 1.36158,-0.786139 2.27779,-0.536792 0.91621,0.249347 3.28873,0.725921 5.27225,1.059053 3.05426,0.51296 3.89221,1.253579 5.47303,4.837319 1.02664,2.327393 3.62786,5.872783 5.78049,7.878644 3.288,3.063822 3.98929,4.431935 4.38551,8.555476 l 0.47164,4.908457 -9.27186,1.234464 c -10.34526,1.377377 -14.30382,3.191903 -16.02415,7.345154 l -1.16371,2.809429 h -9.87868 c -5.43327,0 -9.87868,-0.402599 -9.87868,-0.894665 z M 56.87035,51.901783 c 3.46612,-1.448237 5.49761,-3.882736 4.26693,-5.113412 -0.48889,-0.488897 -9.82725,2.134303 -11.98688,3.367188 -1.06797,0.609684 1.21031,3.277824 2.79888,3.277824 0.69049,0 2.90497,-0.68922 4.92107,-1.5316 z m 50.55908,11.484442 c -1.73173,-4.180751 -5.55992,-5.883744 -16.160012,-7.188877 l -9.041358,-1.113214 0.48333,-5.030096 c 0.40524,-4.217377 1.05367,-5.522125 4.01329,-8.075375 1.941479,-1.674904 4.528998,-5.07028 5.750042,-7.54528 1.221044,-2.475 2.31425,-4.611984 2.429347,-4.748853 0.758882,-0.902438 10.304741,-1.92501 11.534421,-1.235591 1.04687,0.58693 -0.0955,1.060251 -3.72208,1.54216 -5.778634,0.767881 -6.968453,1.697314 -7.856403,6.137062 -0.596721,2.983605 -0.564256,3.008555 4.744067,3.646 2.939686,0.353011 8.392296,0.645749 12.116906,0.65053 l 6.77203,0.0087 2.94351,4.641439 c 2.61449,4.122615 5.89924,12.691216 7.32523,19.108561 0.49328,2.219898 0.36237,2.25 -9.78509,2.25 H 108.6916 l -1.26217,-3.047158 z M 96.375077,52.022411 c 0.644051,-0.776035 0.811647,-1.616118 0.372444,-1.866852 -2.15963,-1.232885 -11.497981,-3.856085 -11.986881,-3.367188 -1.17748,1.177483 0.74714,3.667207 3.899807,5.044854 4.284236,1.872118 6.277355,1.920995 7.71463,0.189186 z M 56.48359,38.498078 c -1.48546,-2.775604 -1.44803,-2.819056 3.08911,-3.585601 2.96603,-0.501106 4.35448,-0.323356 4.94563,0.633142 1.0029,1.622727 1.14059,1.484264 -3.33611,3.354749 -3.44776,1.440567 -3.72507,1.416824 -4.69863,-0.40229 z m 27.72933,0.150059 c -2.72166,-1.249178 -3.50191,-2.083685 -2.87374,-3.073557 0.62639,-0.987048 1.99052,-1.168193 4.98604,-0.662103 4.437354,0.749686 4.805397,1.235655 2.873743,3.794531 -1.161967,1.539266 -1.513113,1.53512 -4.986043,-0.05887 z"
     id="path38"
     inkscape:connector-curvature="0" />
</svg>
