<?xml version="1.0" encoding="UTF-8" standalone="no"?>
<svg
   xmlns:dc="http://purl.org/dc/elements/1.1/"
   xmlns:cc="http://creativecommons.org/ns#"
   xmlns:rdf="http://www.w3.org/1999/02/22-rdf-syntax-ns#"
   xmlns:svg="http://www.w3.org/2000/svg"
   xmlns="http://www.w3.org/2000/svg"
   viewBox="0 0 147.25288 147.07302"
   height="147.07301"
   width="147.25287"
   id="svg2"
   version="1.1">
  <metadata
     id="metadata8">
    <rdf:RDF>
      <cc:Work
         rdf:about="">
        <dc:format>image/svg+xml</dc:format>
        <dc:type
           rdf:resource="http://purl.org/dc/dcmitype/StillImage" />
        <dc:title></dc:title>
      </cc:Work>
    </rdf:RDF>
  </metadata>
  <defs
     id="defs6" />
  <path
     id="path51"
     d="M 59.113922,145.9963 C 35.361352,140.69065 18.071302,127.24829 7.1787218,105.61866 -2.3637282,86.670001 -2.3955582,60.783601 7.0996218,41.309497 16.458592,22.114798 34.116862,7.5981001 55.113902,1.8374127 c 8.9187,-2.44690872 28.058564,-2.45052272 36.999999,-0.00699 21.105909,5.7678744 37.835829,19.4542413 47.683229,39.0085683 9.94097,19.740134 9.94097,45.53213 0,65.272259 -9.67899,19.21992 -26.78997,33.30615 -47.183229,38.84256 -8.524719,2.31431 -25.448479,2.84096 -33.499999,1.04248 z m 29.999999,-8.07814 c 13.828759,-3.24958 28.145769,-12.54131 36.549329,-23.72051 10.02267,-13.33309 13.80827,-24.497374 13.80827,-40.722523 0,-16.225149 -3.7856,-27.389427 -13.80827,-40.722524 -8.40356,-11.179197 -22.72057,-20.47093 -36.549329,-23.7205025 -8.324839,-1.9562244 -22.675159,-1.9562244 -30.999999,0 -22.88407,5.3774435 -42.29002,24.3504725 -48.6073703,47.5229905 -2.3547399,8.637389 -2.3547399,25.202683 0,33.840072 6.2498803,22.925047 25.6128803,42.024987 48.1195903,47.465837 7.96645,1.92583 23.416143,1.95388 31.487779,0.0572 z m -30.999999,-3.03568 c -21.1694,-5.62348 -37.90615,-21.2542 -44.64304,-41.692846 -2.31034,-7.00919 -2.70763,-9.901906 -2.70763,-19.714507 0,-9.812601 0.39729,-12.705317 2.70763,-19.714507 8.6159,-26.139267 32.43973,-43.285493 60.14304,-43.285493 27.703298,0 51.527118,17.146226 60.143028,43.285493 2.31034,7.00919 2.70763,9.901906 2.70763,19.714507 0,9.812601 -0.39729,12.705317 -2.70763,19.714507 -6.80619,20.648886 -23.64863,36.240656 -45.103128,41.753906 -7.478104,1.92168 -23.19423,1.89026 -30.5399,-0.0611 z m 35.432154,-3.20611 c 18.688224,-6.86114 32.442664,-21.32228 39.187774,-41.201243 2.61976,-7.72088 2.61976,-26.27912 0,-34 -6.73611,-19.852462 -20.32378,-34.157103 -39.187774,-41.255585 -5.104718,-1.920893 -7.884922,-2.232256 -19.932154,-2.232256 -12.04723,0 -14.82744,0.311363 -19.93216,2.232256 -18.864,7.098482 -32.45167,21.403123 -39.18778,41.255585 -2.62969,7.750143 -2.62093,26.294622 0.0161,34 7.45294,21.777773 22.6071,36.617513 43.50338,42.600763 7.4112,2.12205 28.167423,1.30453 35.532664,-1.39952 z m -37.432154,-5.47706 c -20.05356,-6.86196 -34.575,-23.82728 -37.4598,-43.764057 l -0.64537,-4.460126 17.80258,-16.692443 c 26.65269,-24.99066 29.05812,-28.055986 7.30259,-9.305946 -10.725,9.24336 -20.7375,17.946064 -22.25,19.339341 l -2.75,2.53323 v -2.653602 c 0,-2.273944 3.15023,-5.09746 22.01832,-19.734789 12.71521,-9.864105 22.49837,-16.784492 23.1545,-16.37898 0.6498,0.401596 0.86284,0.25991 0.49766,-0.33097 -0.67849,-1.097816 7.84712,-8.275841 9.82952,-8.275841 1.9824,0 10.508008,7.178025 9.82952,8.275841 -0.365184,0.59088 -0.152141,0.732566 0.497655,0.33097 0.656133,-0.405512 10.439292,6.514875 23.154493,16.37898 18.86809,14.637329 22.01832,17.460845 22.01832,19.734789 v 2.653602 l -2.75,-2.53323 c -1.5125,-1.393277 -11.525,-10.095981 -22.25,-19.339341 -21.755516,-18.75004 -19.350085,-15.684714 7.30259,9.305946 l 17.80258,16.692443 -0.64537,4.460126 c -2.27143,15.697788 -12.75389,30.924507 -26.9598,39.161537 -5.748481,3.33316 -16.368733,6.87834 -20.605324,6.87834 h -2.894664 v -9.5 -9.5 h -4.5 -4.5 v 9.5 9.5 l -3.25,-0.0258 c -1.7875,-0.0142 -6.175,-1.0267 -9.75,-2.25 z m 21,-40.724183 v -9 h -3.5 -3.5 v 9 9 h 3.5 3.5 z m -1,-26 c 0,-5.733333 -0.11111,-6 -2.5,-6 -2.38889,0 -2.5,0.266667 -2.5,6 0,5.733333 0.11111,6 2.5,6 2.38889,0 2.5,-0.266667 2.5,-6 z m -1,-18.5 c 0,-2.444444 -0.45238,-3.5 -1.5,-3.5 -1.04762,0 -1.5,1.055556 -1.5,3.5 0,2.444444 0.45238,3.5 1.5,3.5 1.04762,0 1.5,-1.055556 1.5,-3.5 z m 0,-8 c 0,-0.825 -0.675,-1.5 -1.5,-1.5 -0.825,0 -1.5,0.675 -1.5,1.5 0,0.825 0.675,1.5 1.5,1.5 0.825,0 1.5,-0.675 1.5,-1.5 z"
     style="fill:#717171" />
</svg>
