<?xml version="1.0" encoding="UTF-8" standalone="no"?>
<svg
   xmlns:dc="http://purl.org/dc/elements/1.1/"
   xmlns:cc="http://creativecommons.org/ns#"
   xmlns:rdf="http://www.w3.org/1999/02/22-rdf-syntax-ns#"
   xmlns:svg="http://www.w3.org/2000/svg"
   xmlns="http://www.w3.org/2000/svg"
   viewBox="0 0 145.85881 146.15774"
   height="146.15773"
   width="145.8588"
   id="svg2"
   version="1.1">
  <metadata
     id="metadata8">
    <rdf:RDF>
      <cc:Work
         rdf:about="">
        <dc:format>image/svg+xml</dc:format>
        <dc:type
           rdf:resource="http://purl.org/dc/dcmitype/StillImage" />
        <dc:title></dc:title>
      </cc:Work>
    </rdf:RDF>
  </metadata>
  <defs
     id="defs6" />
  <path
     id="path64"
     d="M 56.9294,145.04973 C 31.54436,139.27488 10.99814,120.68012 2.68911,95.961102 0.24536,88.691059 0,86.592433 0,72.961102 c 0,-13.631331 0.24536,-15.729957 2.68911,-23 3.78718,-11.266688 9.05122,-19.74386 17.74029,-28.568816 8.52869,-8.66207 17.82377,-14.528174 29.5,-18.6173859 7.41381,-2.59644279 9.0991,-2.79962009 23,-2.77287739 13.762017,0.026475 15.660258,0.2577088 23,2.80173459 11.6293,4.030827 20.94784,9.9026227 29.5,18.5885287 8.68907,8.824956 13.95311,17.302128 17.74029,28.568816 2.44375,7.270043 2.68911,9.368669 2.68911,23 0,13.631331 -0.24536,15.729957 -2.68911,23 -3.78718,11.266688 -9.05122,19.743858 -17.74029,28.568818 -8.59051,8.72485 -17.94565,14.6047 -29.499999,18.54121 -6.694279,2.2807 -10.04019,2.77599 -20.500001,3.03455 -8.05129,0.19902 -14.63538,-0.17679 -18.5,-1.05595 z m 33,-8.22625 C 109.46004,131.8266 127.65702,115.37827 134.87779,96.194436 148.5755,59.802995 127.35323,19.038414 89.4294,8.895323 c -8.65253,-2.3142033 -24.34747,-2.3142033 -33,0 -44.05365,11.782569 -63.5676,62.858719 -38.45032,100.640507 15.57599,23.42964 44.36068,34.34643 71.95032,27.28765 z m -30,-2.00408 c -11.86485,-2.50628 -22.70217,-8.43925 -31.5173,-17.25439 -25.17706,-25.177058 -25.17706,-64.030758 0,-89.207816 9.01178,-9.01178 19.7759,-14.80049 32.22514,-17.32998 9.70077,-1.9710431 14.88355,-1.9710431 24.584318,0 12.449243,2.52949 23.213362,8.3182 32.225142,17.32998 25.17706,25.177058 25.17706,64.030758 0,89.207816 -15.29976,15.29976 -36.56741,21.67976 -57.5173,17.25439 z m 25.039148,-1.83444 C 108.04729,128.56927 128.05012,108.9073 132.93897,85.831998 137.36312,64.950053 131.42302,45.390904 115.96131,29.929195 106.47682,20.444703 96.97269,15.234013 84.968548,12.937241 c -9.695928,-1.855136 -14.382368,-1.855136 -24.078298,0 -23.07874,4.415693 -43.08157,24.077658 -47.97042,47.152965 -4.42415,20.881945 1.51595,40.441094 16.97766,55.902804 15.33871,15.3387 33.85384,21.05147 55.071058,16.99195 z M 22.4294,90.447774 c 0,-0.557331 3.15,-7.301333 7,-14.986672 4.02654,-8.037744 7,-15.253346 7,-16.986672 v -3.013328 h 7.45469 7.45468 l 0.55589,3.25 c 1.86362,10.895781 4.53474,29.031123 4.53474,30.788249 0,1.847175 -0.51404,2.038349 -4.75,1.766542 -4.34991,-0.279119 -4.77665,-0.536422 -5.06642,-3.054791 -0.30793,-2.676141 -0.48596,-2.75 -6.62868,-2.75 -6.07081,0 -6.35979,0.114752 -7.5549,3 -1.11315,2.687379 -1.69893,3 -5.62132,3 -2.40827,0 -4.37868,-0.455998 -4.37868,-1.013328 z M 44.62243,72.961102 c -0.58984,-7.686135 -1.19686,-8.08513 -3.78891,-2.490462 -3.10244,6.69631 -3.04247,7.178727 0.84588,6.80382 3.13282,-0.302059 3.23893,-0.457583 2.94303,-4.313358 z m 19.99679,16.474365 c -8.55609,-5.216506 -8.19271,-19.842907 0.72201,-29.061202 3.2548,-3.365641 5.69151,-4.949129 8.3848,-5.44883 2.08814,-0.387425 3.99911,-0.501921 4.2466,-0.254435 0.43068,0.430676 -2.35605,10.877284 -3.11456,11.67556 -0.20144,0.212002 -1.48947,-0.350498 -2.86228,-1.25 -3.47972,-2.279999 -3.66186,-2.108204 -1.99486,1.881497 1.43721,3.439724 1.4127,3.538543 -1.11612,4.5 -1.42209,0.540675 -3.34381,1.019753 -4.27051,1.064619 -0.95092,0.04604 -0.26912,0.700722 1.5651,1.502868 3.95472,1.729484 4.00277,2.35973 0.5,6.558655 l -2.75,3.296548 3.75,-2.301382 3.75,-2.301382 v 6.08156 c 0,6.954222 -1.04024,7.573757 -6.81018,4.055924 z m 8.81018,1.563148 c 0,-0.254368 0.93233,-2.954368 2.07185,-6 2.01933,-5.397149 3.16887,-6.575075 4.42815,-4.537513 1.25729,2.034335 2.44379,0.982365 1.54836,-1.372798 -0.75994,-1.998803 -0.5122,-2.550464 1.57181,-3.5 3.875828,-1.765947 7.262205,-1.456842 6.823024,0.622798 -0.203262,0.9625 -0.858095,4.289608 -1.455184,7.393574 -1.072391,5.574816 -1.139152,5.657054 -5.47963,6.75 -4.49668,1.132276 -9.50838,1.471685 -9.50838,0.643939 z m 19.85382,-0.01703 c -0.263733,-0.263732 0.906962,-8.251232 2.601543,-17.75 l 3.081057,-17.270483 12.64582,-0.279235 c 11.67052,-0.257699 12.61853,-0.142014 12.29202,1.5 -1.55423,7.816224 -0.75443,7.167627 -9.23279,7.487324 l -7.74147,0.291911 -0.31336,3.25 -0.31336,3.25 h 7.17035 c 6.12758,0 7.08207,0.230037 6.56336,1.581787 -0.33385,0.869984 -0.60699,2.669984 -0.60699,4 0,2.341213 -0.23721,2.418213 -7.44968,2.418213 h -7.44967 l -1.18043,6 -1.18043,6 h -4.203229 c -2.311775,0 -4.419009,-0.215781 -4.682741,-0.479514 z M 85.1794,71.298821 c -1.5125,-0.552412 -2.75,-1.335886 -2.75,-1.741054 0,-0.405167 1.61006,-2.617667 3.577923,-4.916666 4.257864,-4.974356 3.793049,-5.219334 -2.147753,-1.131958 l -4.43017,3.04804 v -6.04804 c 0,-5.43741 0.2077,-6.048041 2.05718,-6.048041 2.743964,0 10.870846,2.074527 11.384833,2.906175 0.354764,0.574019 -0.287201,4.684057 -2.006133,12.843825 -0.514426,2.441978 -1.474869,2.625712 -5.68588,1.087719 z"
     style="fill:#717171" />
</svg>
