<?xml version="1.0" encoding="UTF-8" standalone="no"?>
<svg
   xmlns:dc="http://purl.org/dc/elements/1.1/"
   xmlns:cc="http://creativecommons.org/ns#"
   xmlns:rdf="http://www.w3.org/1999/02/22-rdf-syntax-ns#"
   xmlns:svg="http://www.w3.org/2000/svg"
   xmlns="http://www.w3.org/2000/svg"
   viewBox="0 0 151.31577 149.73763"
   height="149.73763"
   width="151.31577"
   id="svg2"
   version="1.1">
  <metadata
     id="metadata8">
    <rdf:RDF>
      <cc:Work
         rdf:about="">
        <dc:format>image/svg+xml</dc:format>
        <dc:type
           rdf:resource="http://purl.org/dc/dcmitype/StillImage" />
        <dc:title></dc:title>
      </cc:Work>
    </rdf:RDF>
  </metadata>
  <defs
     id="defs6" />
  <path
     id="path12"
     d="M 61.123158,148.38835 C 40.578088,144.29102 22.777418,132.31884 11.924668,115.29897 3.3438578,101.84207 -0.06326221,90.149672 8.8779336e-4,74.379527 0.10879779,47.850452 13.881018,24.073634 37.255918,10.061209 c 5.44724,-3.2654278 16.53579,-7.197373 24.74004,-8.7726958 23.977156,-4.6039273 49.835552,3.3260411 67.322582,20.6457428 14.43586,14.29772 22.08023,32.871359 21.99654,53.445271 -0.12537,30.821773 -19.10099,58.270373 -47.75503,69.078593 -13.914964,5.24868 -28.877432,6.63441 -42.436892,3.93023 z m 29.53483,-8.00817 c 8.652946,-1.81048 21.249632,-7.96034 28.359452,-13.84546 15.92299,-13.18015 24.41554,-31.147587 24.41554,-51.655193 0,-11.373768 -1.96699,-19.87422 -6.85756,-29.635246 C 119.93987,12.041616 78.904418,-1.6922432 45.657988,14.815788 21.819628,26.652383 7.9230278,48.735464 7.8606578,74.879527 c -0.0484,20.284934 8.5845602,38.532713 24.4378702,51.655193 6.93426,5.7398 19.62432,12.02108 27.85946,13.78978 8.59332,1.84562 21.82968,1.86979 30.5,0.0557 z m -30.69156,-2.98997 c -22.10248,-5.58339 -38.89379,-21.14355 -46.41374,-43.010683 -2.37827,-6.915729 -2.75114,-9.558639 -2.75114,-19.5 0,-9.944904 0.37212,-12.580508 2.75185,-19.490402 6.86536,-19.934553 20.79648,-34.053396 40.76999,-41.31935 6.63748,-2.414584 8.66523,-2.66818 21.3346,-2.66818 12.669374,0 14.697115,0.253596 21.334604,2.66818 10.000398,3.637944 17.303258,8.185711 24.584578,15.309752 7.49476,7.332867 12.55218,15.460038 16.1854,26.009598 2.37973,6.909894 2.75185,9.545498 2.75185,19.490402 0,9.944904 -0.37212,12.580508 -2.75185,19.490402 -6.8786,19.972981 -20.97569,34.236111 -40.769978,41.250171 -9.114008,3.22953 -27.726484,4.11933 -37.026164,1.77011 z m 35.20684,-3.35504 C 108.28826,129.82606 122.53387,118.60595 129.66359,106.86993 138.7734,91.874544 141.1088,72.374955 135.70951,56.389125 132.20062,46.000258 127.74274,38.78962 120.24765,31.379527 112.76462,23.981361 103.8559,18.482646 94.657988,15.584862 c -5.593983,-1.762372 -9.410315,-2.205335 -19,-2.205335 -14.04223,0 -22.11806,2.054586 -32.25218,8.205335 -42.56788021,25.835906 -40.3000102,85.875168 4.11422,108.919268 12.7897,6.63587 33.25416,8.15226 47.65324,3.53104 z m -27.65718,-2.84721 c -3.38889,-0.66326 -1.90108,-4.30843 1.75853,-4.30843 2.40893,0 2.88337,0.41136 2.88337,2.5 0,2.4783 -0.40769,2.63713 -4.6419,1.80843 z m 17.420455,-2.68651 c -0.397655,-2.08018 0.0219,-2.70531 2.363472,-3.52159 2.572947,-0.89693 2.907157,-0.75255 3.472556,1.50018 0.736984,2.93638 0.663813,3.04053 -2.735618,3.89373 -2.23847,0.56182 -2.686856,0.29104 -3.10041,-1.87232 z m -35.528555,-2.89879 c -2.17092,-0.9926 -2.89549,-2.74431 -1.65023,-3.98957 0.93544,-0.93544 5.40023,1.43571 5.40023,2.86794 0,1.90554 -1.23055,2.2736 -3.75,1.12163 z m 53.073422,-4.35227 c -1.67236,-2.55234 -1.65275,-2.68578 0.67148,-4.56782 2.38471,-1.93103 2.40121,-1.92953 4.17739,0.37914 2.24531,2.91843 2.25752,3.77105 0.0777,5.42577 -2.4594,1.86696 -2.97806,1.73672 -4.92657,-1.23709 z m -69.194152,-7.73326 c -1.96339,-2.08993 -2.03098,-2.47428 -0.63842,-3.63001 0.85662,-0.71093 1.6639,-1.11597 1.79397,-0.90009 0.13007,0.21587 1.03055,1.34048 2.00106,2.49912 1.47293,1.75844 1.53936,2.29353 0.40193,3.23751 -1.0532,0.87408 -1.86131,0.60009 -3.55854,-1.20653 z m 83.179792,-4.26716 c -2.82865,-2.24777 -3.06587,-2.81009 -2.08948,-4.95304 1.36158,-2.98835 2.49246,-2.98999 6.13698,-0.009 2.80123,2.29132 2.82322,2.38748 1.13499,4.96404 -0.94687,1.4451 -1.78233,2.60633 -1.85657,2.5805 -0.0742,-0.0258 -1.57091,-1.18799 -3.32592,-2.5826 z M 60.743888,96.318923 c -3.23078,-2.416872 -6.08192,-4.602079 -6.33585,-4.856015 -0.25394,-0.253936 1.04842,-2.565156 2.89412,-5.136044 2.92512,-4.07441 3.31858,-5.333588 3.06563,-9.810839 -0.46946,-8.309397 4.9083,-14.635236 13.7064,-16.122804 2.64484,-0.447184 7.3432,-3.737891 17.932499,-12.559818 7.891777,-6.574632 14.531923,-11.953876 14.755883,-11.953876 0.22395,0 -3.21377,7.231279 -7.639386,16.069509 -7.446876,14.871853 -8.062185,16.570757 -8.255891,22.794998 -0.236612,7.602918 -1.96779,11.102847 -7.013635,14.179496 -1.75762,1.071686 -4.58189,1.950203 -6.27615,1.952259 -2.49976,0.003 -3.68468,0.845074 -6.28552,4.466671 -1.76277,2.454614 -3.53554,4.6672 -3.93949,4.91686 -0.40396,0.24965 -3.37783,-1.523532 -6.60861,-3.940397 z m 20.95955,-14.893941 c 3.247351,-3.247346 3.247351,-7.843564 0,-11.09091 -3.3395,-3.3395 -8.7514,-3.3395 -12.09091,0 -5.17205,5.172059 -1.43493,13.545455 6.04546,13.545455 2.47924,0 4.35079,-0.759877 6.04545,-2.454545 z m -9.15812,-3.978484 c -1.07354,-2.797591 0.40152,-4.723893 3.35698,-4.383942 2.18821,0.251697 2.75569,0.831797 2.75569,2.816971 0,1.985174 -0.56748,2.565274 -2.75569,2.816971 -1.79706,0.206706 -2.96486,-0.228132 -3.35698,-1.25 z m -50.05694,19.497366 c -1.08685,-2.879394 -0.3163,-4.064337 2.64299,-4.064337 1.50641,0 2.22146,5.260271 0.83461,6.139831 -1.99245,1.263642 -2.28258,1.090482 -3.4776,-2.075494 z M 124.93118,93.028215 c -4.33858,-1.363414 -4.67608,-1.697442 -4.10932,-4.06705 0.8209,-3.432177 0.45465,-3.309718 5.70159,-1.906375 4.63044,1.238453 5.35032,2.350438 3.81424,5.891787 -0.61081,1.408205 -1.15884,1.41648 -5.40651,0.08164 z M 18.157988,77.879527 c 0,-2.666667 0.33333,-3 3,-3 2.66667,0 3,0.333333 3,3 0,2.666667 -0.33333,3 -3,3 -2.66667,0 -3,-0.333333 -3,-3 z M 121.6137,73.559114 c -0.96507,-3.845124 0.12327,-4.679587 6.1033,-4.679587 5.37887,0 5.44098,0.03425 5.44098,3 0,2.186284 -0.47467,3.002985 -1.75,3.011006 -0.9625,0.0061 -3.41506,0.286291 -5.45014,0.622751 -3.36231,0.555892 -3.75894,0.377474 -4.34414,-1.95417 z M 22.407988,62.173794 c -2.33182,-0.449127 -2.62075,-1.310926 -1.65104,-4.924485 0.51686,-1.926029 0.89896,-2.029763 3.98635,-1.082219 1.87808,0.5764 3.41469,1.452081 3.41469,1.94596 0,1.445018 -2.00535,4.778863 -2.78518,4.630295 -0.39315,-0.0749 -1.72732,-0.331198 -2.96482,-0.569551 z m 94.785172,-4.228526 c -0.56935,-1.063842 -1.03518,-2.213605 -1.03518,-2.555029 0,-0.649464 11.12005,-5.812428 11.42182,-5.303075 0.0953,0.1608 0.67448,1.463574 1.28714,2.895054 1.07281,2.506633 0.92272,2.681943 -4.06684,4.75 -6.30712,2.614155 -6.32169,2.614563 -7.60694,0.21305 z M 30.801418,45.471025 c -2.79314,-2.284694 -2.8187,-2.394373 -1.15108,-4.939479 l 1.70549,-2.602903 3.40108,2.594131 c 3.92425,2.993172 4.05228,3.457449 1.57234,5.701765 -2.26107,2.046243 -2.07379,2.071772 -5.52783,-0.753514 z m 76.786072,-0.669387 c -1.86264,-2.058196 -1.83331,-2.119003 3.09501,-6.416038 l 4.97548,-4.338149 2.33208,2.166038 2.33208,2.166038 -4.83208,4.229433 c -2.65764,2.326188 -5.09984,4.238688 -5.42709,4.25 -0.32726,0.01131 -1.44122,-0.914483 -2.47548,-2.057322 z M 44.407988,33.381173 c -2.70608,-4.177702 -2.7259,-4.419901 -0.5,-6.1096 2.5676,-1.949086 2.87155,-1.80245 6.15445,2.969084 l 3.00054,4.361129 -2.49955,1.138871 c -3.48754,1.589028 -3.63424,1.532793 -6.15544,-2.359484 z m 50.283129,2.146237 c -1.768243,-1.292971 -1.708867,-1.597272 1.357356,-6.95647 3.023211,-5.284027 3.346601,-5.54051 5.657997,-4.487368 3.07004,1.398807 3.05654,1.913654 -0.20742,7.910627 -2.815826,5.173623 -3.838613,5.704431 -6.807933,3.533211 z m -13.824819,-4.446363 -2.79168,-0.34241 0.67422,-6.179555 c 0.37082,-3.398755 0.7677,-6.29518 0.88196,-6.436499 0.11426,-0.14132 1.54964,0.01143 3.18973,0.339451 l 2.981977,0.596396 -0.832514,6.08747 c -0.457883,3.348109 -0.940403,6.13024 -1.072263,6.182514 -0.13186,0.05227 -1.496,-0.05904 -3.03143,-0.247367 z m -19.08761,-1.95152 c -0.28273,-0.9625 -0.80215,-3.378906 -1.15425,-5.369791 -0.58798,-3.324672 -0.41965,-3.675138 2.06468,-4.298667 1.48768,-0.373383 2.81038,-0.544477 2.93934,-0.38021 0.38484,0.490215 2.52953,9.597489 2.52953,10.741488 0,1.860524 -5.81475,1.229017 -6.3793,-0.69282 z"
     style="fill:#717171" />
</svg>
